<svg width="354" height="105" viewBox="0 0 354 105" fill="none" xmlns="http://www.w3.org/2000/svg">
<path d="M25.9839 83.456C31.7012 83.456 36.0106 82.176 38.9119 79.616C41.8986 76.9706 43.3919 73.6 43.3919 69.504C43.3919 66.0053 42.2399 63.104 39.9359 60.8C37.7172 58.496 34.1759 56.6613 29.3119 55.296L18.1759 51.968C14.5919 50.8586 11.4772 49.4506 8.83189 47.744C6.18656 45.952 4.13856 43.776 2.68789 41.216C1.32256 38.5706 0.639891 35.4986 0.639891 32C0.639891 25.4293 3.02922 20.3093 7.80789 16.64C12.5866 12.8853 18.9439 11.008 26.8799 11.008C31.4879 11.008 35.5839 11.52 39.1679 12.544C42.8372 13.4826 45.6959 14.72 47.7439 16.256C49.8772 17.792 50.9439 19.4133 50.9439 21.12C50.9439 22.2293 50.6452 23.2533 50.0479 24.192C49.4506 25.0453 48.6826 25.728 47.7439 26.24C45.6106 24.5333 42.7092 23.04 39.0399 21.76C35.4559 20.48 31.5306 19.84 27.2639 19.84C22.3146 19.84 18.3892 20.9493 15.4879 23.168C12.5866 25.3013 11.1359 28.2453 11.1359 32C11.1359 34.9866 12.1599 37.4186 14.2079 39.296C16.3412 41.1733 19.7546 42.7946 24.4479 44.16L32.2559 46.464C38.9972 48.3413 44.2879 51.072 48.1279 54.656C52.0532 58.24 54.0159 63.1893 54.0159 69.504C54.0159 76.2453 51.5412 81.7066 46.5919 85.888C41.7279 90.0693 34.8586 92.16 25.9839 92.16C20.7786 92.16 16.2132 91.6053 12.2879 90.496C8.44789 89.3013 5.41856 87.8506 3.19989 86.144C1.06656 84.352 -0.000109196 82.6026 -0.000109196 80.896C-0.000109196 79.4453 0.426558 78.2506 1.27989 77.312C2.21856 76.288 3.28522 75.5626 4.47989 75.136C6.44256 77.0133 9.21589 78.8906 12.7999 80.768C16.3839 82.56 20.7786 83.456 25.9839 83.456ZM110.776 65.024V53.248C110.776 48.128 109.325 44.3306 106.424 41.856C103.608 39.3813 99.9386 38.144 95.4159 38.144C92.0879 38.144 88.9732 38.784 86.0719 40.064C83.2559 41.344 80.8666 42.88 78.9039 44.672L76.9839 36.352C79.0319 34.9013 81.7199 33.4506 85.0479 32C88.4612 30.464 92.3866 29.696 96.8239 29.696C103.907 29.696 109.709 31.616 114.232 35.456C118.755 39.296 121.016 45.1413 121.016 52.992V65.024H110.776ZM80.1839 56.704V90.24C79.7572 90.4106 79.1172 90.5813 78.2639 90.752C77.4106 91.008 76.4719 91.136 75.4479 91.136C73.6559 91.136 72.2906 90.7946 71.3519 90.112C70.4132 89.344 69.9439 88.1493 69.9439 86.528V56.704H80.1839ZM121.016 56.96V90.24C120.589 90.4106 119.907 90.5813 118.968 90.752C118.115 91.008 117.219 91.136 116.28 91.136C114.403 91.136 112.995 90.7946 112.056 90.112C111.203 89.344 110.776 88.1493 110.776 86.528V56.832L121.016 56.96ZM69.9439 61.696V7.55197C70.3706 7.3813 71.0106 7.21063 71.8639 7.03997C72.8026 6.78397 73.7839 6.65597 74.8079 6.65597C76.5999 6.65597 77.9226 7.03997 78.7759 7.80797C79.7146 8.49064 80.1839 9.64264 80.1839 11.264V61.696H69.9439ZM150.428 62.592H140.188V43.136C140.188 41.1733 140.529 39.6373 141.212 38.528C141.98 37.3333 143.217 36.1813 144.924 35.072C147.143 33.6213 150.172 32.384 154.012 31.36C157.852 30.2506 162.119 29.696 166.812 29.696C173.639 29.696 177.052 31.4026 177.052 34.816C177.052 35.6693 176.924 36.48 176.668 37.248C176.412 37.9306 176.071 38.528 175.644 39.04C174.791 38.8693 173.681 38.6986 172.316 38.528C170.951 38.3573 169.585 38.272 168.22 38.272C164.295 38.272 160.839 38.6986 157.852 39.552C154.865 40.32 152.391 41.2586 150.428 42.368V62.592ZM150.428 58.24V90.24C150.001 90.4106 149.361 90.5813 148.508 90.752C147.655 91.008 146.716 91.136 145.692 91.136C143.9 91.136 142.535 90.7946 141.596 90.112C140.657 89.344 140.188 88.1493 140.188 86.528V56.704L150.428 58.24ZM199.431 56.704V74.368C199.431 77.7813 200.412 80.2133 202.375 81.664C204.338 83.0293 207.026 83.712 210.439 83.712C211.89 83.712 213.511 83.456 215.303 82.944C217.095 82.432 218.588 81.8346 219.783 81.152C220.295 81.664 220.764 82.304 221.191 83.072C221.618 83.84 221.831 84.736 221.831 85.76C221.831 87.6373 220.722 89.1733 218.503 90.368C216.284 91.5626 213.212 92.16 209.287 92.16C203.314 92.16 198.45 90.8373 194.695 88.192C191.026 85.5466 189.191 81.152 189.191 75.008V56.704H199.431ZM194.439 32.64H220.423C220.679 32.9813 220.935 33.536 221.191 34.304C221.447 35.072 221.575 35.8826 221.575 36.736C221.575 38.1013 221.234 39.168 220.551 39.936C219.868 40.704 218.93 41.088 217.735 41.088H194.439V32.64ZM189.191 60.544V14.208C189.618 14.0373 190.258 13.8666 191.111 13.696C192.05 13.44 193.031 13.312 194.055 13.312C195.847 13.312 197.17 13.696 198.023 14.464C198.962 15.1466 199.431 16.2986 199.431 17.92V60.544H189.191ZM247.952 58.24V90.24C247.525 90.4106 246.885 90.5813 246.032 90.752C245.179 91.008 244.24 91.136 243.216 91.136C241.424 91.136 240.059 90.7946 239.12 90.112C238.181 89.344 237.712 88.1493 237.712 86.528V56.704L247.952 58.24ZM237.712 61.696V7.55197C238.139 7.3813 238.779 7.21063 239.632 7.03997C240.571 6.78397 241.509 6.65597 242.448 6.65597C244.325 6.65597 245.691 7.03997 246.544 7.80797C247.483 8.49064 247.952 9.64264 247.952 11.264V63.104L237.712 61.696Z" fill="#8592FF"/>
<path d="M263.708 40.32C263.708 38.272 264.305 36.5653 265.5 35.2C266.78 33.8346 268.487 33.152 270.62 33.152C272.839 33.152 274.545 33.8346 275.74 35.2C277.02 36.5653 277.66 38.272 277.66 40.32C277.66 42.368 277.02 44.0746 275.74 45.44C274.545 46.72 272.839 47.36 270.62 47.36C268.487 47.36 266.78 46.72 265.5 45.44C264.305 44.0746 263.708 42.368 263.708 40.32ZM263.708 85.12C263.708 83.072 264.305 81.3653 265.5 80C266.695 78.6346 268.401 77.952 270.62 77.952C272.839 77.952 274.545 78.6346 275.74 80C277.02 81.3653 277.66 83.072 277.66 85.12C277.66 87.0826 277.02 88.7466 275.74 90.112C274.545 91.4773 272.839 92.16 270.62 92.16C268.401 92.16 266.695 91.4773 265.5 90.112C264.305 88.7466 263.708 87.0826 263.708 85.12ZM294.23 103.936C293.718 104.021 293.206 104.064 292.694 104.064C292.182 104.149 291.585 104.192 290.902 104.192C289.281 104.192 288.043 103.765 287.19 102.912C286.337 102.144 285.91 101.035 285.91 99.584C285.91 98.6453 286.081 97.536 286.422 96.256C286.763 94.976 287.019 93.952 287.19 93.184L310.742 0.255966C311.339 0.170634 311.894 0.127968 312.406 0.127968C312.918 0.0426356 313.473 -3.05176e-05 314.07 -3.05176e-05C315.521 -3.05176e-05 316.715 0.38397 317.654 1.15197C318.593 1.83463 319.062 2.98663 319.062 4.60797C319.062 5.54664 318.934 6.6133 318.678 7.80797C318.422 8.9173 318.166 9.98397 317.91 11.008L294.23 103.936ZM328.73 103.936C328.218 104.021 327.706 104.064 327.194 104.064C326.682 104.149 326.085 104.192 325.402 104.192C323.781 104.192 322.543 103.765 321.69 102.912C320.837 102.144 320.41 101.035 320.41 99.584C320.41 98.6453 320.581 97.536 320.922 96.256C321.263 94.976 321.519 93.952 321.69 93.184L345.242 0.255966C345.839 0.170634 346.394 0.127968 346.906 0.127968C347.418 0.0426356 347.973 -3.05176e-05 348.57 -3.05176e-05C350.021 -3.05176e-05 351.215 0.38397 352.154 1.15197C353.093 1.83463 353.562 2.98663 353.562 4.60797C353.562 5.54664 353.434 6.6133 353.178 7.80797C352.922 8.9173 352.666 9.98397 352.41 11.008L328.73 103.936Z" fill="#B0B8FF"/>
</svg>
