<svg width="139" height="139" viewBox="0 0 139 139" fill="none" xmlns="http://www.w3.org/2000/svg">
<rect width="139" height="139" rx="20" fill="#8592FF"/>
<mask id="mask0_369_16" style="mask-type:alpha" maskUnits="userSpaceOnUse" x="0" y="0" width="139" height="139">
<rect width="139" height="139" rx="20" fill="#8592FF"/>
</mask>
<g mask="url(#mask0_369_16)">
<path d="M8.13281 41.6C8.13281 38.4 9.06615 35.7333 10.9328 33.6C12.9328 31.4667 15.5995 30.4 18.9328 30.4C22.3995 30.4 25.0661 31.4667 26.9328 33.6C28.9328 35.7333 29.9328 38.4 29.9328 41.6C29.9328 44.8 28.9328 47.4667 26.9328 49.6C25.0661 51.6 22.3995 52.6 18.9328 52.6C15.5995 52.6 12.9328 51.6 10.9328 49.6C9.06615 47.4667 8.13281 44.8 8.13281 41.6ZM8.13281 111.6C8.13281 108.4 9.06615 105.733 10.9328 103.6C12.7995 101.467 15.4661 100.4 18.9328 100.4C22.3995 100.4 25.0661 101.467 26.9328 103.6C28.9328 105.733 29.9328 108.4 29.9328 111.6C29.9328 114.667 28.9328 117.267 26.9328 119.4C25.0661 121.533 22.3995 122.6 18.9328 122.6C15.4661 122.6 12.7995 121.533 10.9328 119.4C9.06615 117.267 8.13281 114.667 8.13281 111.6ZM55.8234 141C55.0234 141.133 54.2234 141.2 53.4234 141.2C52.6234 141.333 51.6901 141.4 50.6234 141.4C48.0901 141.4 46.1568 140.733 44.8234 139.4C43.4901 138.2 42.8234 136.467 42.8234 134.2C42.8234 132.733 43.0901 131 43.6234 129C44.1568 127 44.5568 125.4 44.8234 124.2L81.6234 -21C82.5568 -21.1333 83.4234 -21.2 84.2234 -21.2C85.0234 -21.3333 85.8901 -21.4 86.8234 -21.4C89.0901 -21.4 90.9568 -20.8 92.4234 -19.6C93.8901 -18.5333 94.6234 -16.7333 94.6234 -14.2C94.6234 -12.7333 94.4234 -11.0667 94.0234 -9.20001C93.6234 -7.46667 93.2234 -5.80001 92.8234 -4.20001L55.8234 141ZM109.73 141C108.93 141.133 108.13 141.2 107.33 141.2C106.53 141.333 105.596 141.4 104.53 141.4C101.996 141.4 100.063 140.733 98.7297 139.4C97.3964 138.2 96.7297 136.467 96.7297 134.2C96.7297 132.733 96.9964 131 97.5297 129C98.063 127 98.463 125.4 98.7297 124.2L135.53 -21C136.463 -21.1333 137.33 -21.2 138.13 -21.2C138.93 -21.3333 139.796 -21.4 140.73 -21.4C142.996 -21.4 144.863 -20.8 146.33 -19.6C147.796 -18.5333 148.53 -16.7333 148.53 -14.2C148.53 -12.7333 148.33 -11.0667 147.93 -9.20001C147.53 -7.46667 147.13 -5.80001 146.73 -4.20001L109.73 141Z" fill="#B0B8FF"/>
</g>
</svg>
